<svg xmlns="http://www.w3.org/2000/svg" xmlns:xlink="http://www.w3.org/1999/xlink" viewBox="0,0,256,256" width="48px" height="48px" fill-rule="nonzero"><g fill="#c8c8c8" fill-rule="nonzero" stroke="none" stroke-width="1" stroke-linecap="butt" stroke-linejoin="miter" stroke-miterlimit="10" stroke-dasharray="" stroke-dashoffset="0" font-family="none" font-weight="none" font-size="none" text-anchor="none" style="mix-blend-mode: normal"><path d="M0,256v-256h256v256z" id="bgRectangle"></path></g><g fill="#000000" fill-rule="nonzero" stroke="none" stroke-width="1" stroke-linecap="butt" stroke-linejoin="miter" stroke-miterlimit="10" stroke-dasharray="" stroke-dashoffset="0" font-family="none" font-weight="none" font-size="none" text-anchor="none" style="mix-blend-mode: normal"><g transform="scale(5.33333,5.33333)"><path d="M40.45898,7.55859c-0.98796,0.00002 -1.97501,0.37473 -2.72266,1.12305l-18.48828,18.48828l-8.98242,-8.98242c-1.49612,-1.49612 -3.95198,-1.49663 -5.44727,0l-2.68945,2.68945c-1.49612,1.49612 -1.49663,3.95198 0,5.44727l14.39453,14.39453c1.49591,1.49591 3.95136,1.49591 5.44727,0l23.90234,-23.90234c1.49546,-1.49546 1.49495,-3.94902 0,-5.44531c0,-0.00065 0,-0.0013 0,-0.00195l-2.68945,-2.6875c-0.74806,-0.74806 -1.73665,-1.12306 -2.72461,-1.12305zM40.45898,9.54688c0.47179,0.00001 0.94461,0.18289 1.31055,0.54883l2.6875,2.6875c0.73105,0.73171 0.73054,1.8886 0,2.61914l-23.90039,23.90234c-0.73209,0.73209 -1.88705,0.73209 -2.61914,0l-14.39453,-14.39453c-0.73137,-0.73071 -0.73188,-1.88726 0,-2.61914l2.68945,-2.68945c0.73071,-0.73137 1.88726,-0.73188 2.61914,0l9.6875,9.68945c0.18762,0.18806 0.44236,0.29375 0.70801,0.29375c0.26565,0 0.52039,-0.10569 0.70801,-0.29375l19.19531,-19.19531c0.36536,-0.36568 0.8368,-0.54884 1.30859,-0.54883z"></path></g></g></svg>